Coordinates
version=1
nRows=16
nColumns=36
inDegrees=yes

Units are S.I. units (second, meters, Newtons, ...)
If the header above contains a line with 'inDegrees', this indicates whether rotational values are in degrees (yes) or radians (no).

endheader
time	pelvis_tilt	pelvis_list	pelvis_rotation	pelvis_tx	pelvis_ty	pelvis_tz	hip_flexion_r	hip_adduction_r	hip_rotation_r	knee_angle_r	knee_angle_r_beta	ankle_angle_r	subtalar_angle_r	mtp_angle_r	hip_flexion_l	hip_adduction_l	hip_rotation_l	knee_angle_l	knee_angle_l_beta	ankle_angle_l	subtalar_angle_l	mtp_angle_l	lumbar_extension	lumbar_bending	lumbar_rotation	arm_flex_r	arm_add_r	arm_rot_r	elbow_flex_r	pro_sup_r	arm_flex_l	arm_add_l	arm_rot_l	elbow_flex_l	pro_sup_l
      2.95000000	    -17.42950543	     -0.03679031	     -0.79031941	      0.34379494	      1.22634200	     -0.03442219	     49.42488465	     -5.10271059	     -4.30536010	     67.17054595	      1.17234719	     12.08010935	     -7.65745634	     -7.49999987	     43.68143103	     -9.78594486	     -5.52439538	     69.80303186	      1.21829273	      9.70580946	     -9.63086552	     -7.49999987	     -2.60155981	     -0.39729250	      1.77950811	     31.02984923	     -1.46963151	     65.91767942	    118.52267856	    102.43619529	     39.05663706	     -3.98875672	     68.92791368	    116.15888500	    105.19032745
      2.96666670	    -17.74916684	      0.19983282	     -0.84232931	      0.35315157	      1.19731895	     -0.03644479	     49.94627307	     -6.11298662	     -5.63318079	     61.62603524	      1.07557722	      7.67642121	     -6.99676428	     -7.49999987	     45.14363505	     -9.35942905	     -6.52681437	     64.04425813	      1.11778317	      8.38286612	     -9.33957164	     -7.49999987	     -4.11268290	     -0.04064413	      2.07988596	     32.64908679	     -1.57007101	     67.30999183	    119.28041119	    101.82822867	     41.15553393	     -3.76643987	     68.84871722	    115.89930892	    104.31511992
      2.98333330	    -18.76925610	      0.45884906	     -0.65376531	      0.36304159	      1.18257310	     -0.03804216	     51.69989906	     -6.93422278	     -6.26778805	     54.69156297	      0.95454785	      1.49168662	     -5.76432302	     -7.49999987	     46.02106775	     -8.81977888	     -7.85689547	     56.68848076	      0.98940064	      3.79364673	     -9.28724603	     -7.49999987	     -5.68210015	      0.06070470	      2.47372327	     32.89304152	     -1.47109201	     68.26748647	    119.72527030	    101.76391675	     41.85432893	     -3.49234725	     70.78676124	    116.74682548	    104.16373064
      3.00000000	    -19.33217623	      0.71708081	     -0.96341114	      0.36961028	      1.15614011	     -0.03698630	     51.93251558	     -7.63187302	     -7.19905186	     47.69426835	      0.83242202	     -4.28906060	     -4.11654513	     -7.49999987	     47.01599658	     -8.43013621	     -9.16323071	     49.20527286	      0.85879402	     -3.06108546	    -10.21215082	     -7.49999987	     -6.91142920	      0.21627626	      2.61927146	     32.87386346	     -0.36690698	     68.44979281	    120.38965273	    102.44977833	     42.86192607	     -3.25964038	     72.02159651	    117.91776761	    104.79777777
      3.01666670	    -20.00955596	      1.58878211	     -0.04317198	      0.37548587	      1.12833678	     -0.03334477	     53.07036182	     -9.18211469	     -7.06911432	     41.95636503	      0.73227671	     -9.29889045	     -1.51225284	     -7.49999987	     51.00175604	     -6.61852439	     -8.73328819	     44.81473743	      0.78216472	     -1.98010044	     -7.93705276	     -7.49999987	     -7.85955716	     -0.98932841	      2.37435355	     32.79133956	     -0.02576653	     67.29436417	    120.80663788	    102.80643437	     45.02495416	     -3.13191078	     71.11246798	    117.95230273	    104.80440000
      3.03333330	    -19.23844412	      2.19908115	      0.13401064	      0.38746530	      1.10692911	     -0.03519227	     51.65357569	    -10.32254778	     -8.31644967	     35.37277877	      0.61737146	    -15.20121578	     -1.52233997	     -7.49999987	     49.35031346	     -5.53713285	     -9.17621901	     36.89172644	      0.64388209	     -9.27715946	     -8.36687722	     -7.49999987	     -9.94561287	     -1.49844513	      2.24680151	     32.92694603	      0.76455958	     66.55619859	    120.38453103	    104.07964439	     45.90081527	     -3.79154707	     69.44716008	    118.22799176	    105.74970324
      3.05000000	    -17.78016866	      2.28616358	     -0.17202031	      0.40509712	      1.07346600	     -0.03881228	     48.96876367	    -10.92269820	     -9.41307515	     29.89260989	      0.52172446	    -17.56562945	      0.02233121	     -7.49999987	     46.59047549	     -5.31210822	     -7.85876205	     30.58492026	      0.53380756	    -15.23633988	     -9.43565885	     -7.49999987	    -11.20893552	     -1.16721634	      2.05483000	     34.10473058	      1.51743020	     66.71616641	    120.12035510	    104.72819798	     47.22174768	     -4.12886064	     68.32181478	    118.02449203	    105.97231098
      3.06666670	    -16.28628049	      2.41085181	     -0.83274715	      0.44513445	      1.04527630	     -0.04008604	     44.55423360	    -11.01934036	     -9.99581363	     24.23306096	      0.42294670	    -19.24847445	      1.45531540	     -7.49999987	     41.98256218	     -5.15858413	     -6.50770573	     25.08400362	      0.43779845	    -17.03375369	     -9.03219322	     -7.49999987	    -11.70826863	     -0.99888455	      2.35076988	     33.08570227	      0.97318690	     67.23135419	    119.09346451	    104.95204874	     45.63413622	     -4.57094795	     67.81804578	    116.93481415	    106.05459544
      3.08333330	    -16.07758828	      2.82414428	     -0.53312282	      0.45928358	      1.00491337	     -0.04053593	     43.99993304	    -11.89308305	     -9.55045917	     22.02106178	      0.38434003	    -21.16594684	      2.27385306	     -7.49999987	     41.01900106	     -4.70531151	     -5.77812075	     23.34661300	      0.40747527	    -17.78799041	     -8.11016465	     -7.49999987	    -12.14407634	     -1.28569860	      2.06687741	     31.95989708	      0.58395755	     67.88823348	    119.98243473	    105.68412588	     44.11992197	     -4.41226713	     68.46431527	    117.46319692	    106.79374934
      3.10000000	    -15.41896419	      2.65321804	     -0.58395533	      0.47428794	      0.96028414	     -0.04176654	     44.46760105	    -11.90212839	     -8.37657475	     23.29167048	      0.40651634	    -20.84173246	      1.89872047	     -7.49999987	     40.59668170	     -5.04371020	     -4.71818514	     24.37625388	      0.42544589	    -18.02020348	     -7.46350060	     -7.49999987	    -13.16684060	     -0.65911927	      2.34985817	     31.91690742	     -0.79182499	     69.75630453	    121.22498691	    104.65112172	     42.99921260	     -3.71987983	     68.47269376	    117.36457253	    105.63227516
      3.11666670	    -15.35564106	      1.71491106	     -0.88313373	      0.48267959	      0.91309594	     -0.03740785	     47.06578026	    -10.93602427	     -5.85379806	     28.82630545	      0.50311394	    -16.31819637	      0.41352136	     -7.49999987	     43.15535827	     -6.40056067	     -3.30658796	     29.30959454	      0.51154893	    -14.24521684	     -8.07224709	     -7.49999987	    -13.84588247	      0.64613218	      3.38996749	     31.46869828	     -2.79818359	     72.50244904	    123.16556351	    101.15772494	     42.73790197	     -3.37271153	     64.68256020	    116.53878473	    101.70806887
      3.13333330	    -16.54449865	      0.77075858	     -0.67676188	      0.48420974	      0.87929796	     -0.03666916	     52.30466111	     -9.90099522	     -2.99420454	     37.55565209	      0.65546978	     -9.32169542	     -2.35351677	     -7.49999987	     48.30495556	     -7.43628698	     -1.44897409	     37.40036824	      0.65275957	     -6.34338271	     -8.47780229	     -7.49999987	    -14.52352403	      2.38286991	      3.31994364	     33.26045325	     -3.73118844	     75.76873782	    122.41682055	    105.33194376	     41.76493113	     -4.26124686	     59.26260349	    116.52973945	    105.57228784
      3.15000000	    -18.14065814	      0.24726136	     -0.41765889	      0.52919867	      0.82564974	     -0.03457596	     58.53817754	     -9.08831560	     -0.38247989	     50.02487452	      0.87309877	      0.36626890	     -6.12770766	     -7.49999987	     53.19059642	     -8.04829972	      0.52092850	     47.08013442	      0.82170336	      4.41240420	     -8.61378328	     -7.49999987	    -12.81864127	      3.31156028	      3.06986692	     31.88031716	     -3.27701865	     78.07005989	    120.77171579	    107.06492614	     38.15580477	     -5.19359435	     58.88691108	    117.47387534	    107.49076631
      3.16666670	    -19.74479947	     -0.12632238	      0.36920569	      0.51529246	      0.79031443	     -0.02802643	     66.31168460	     -8.60526464	      1.44158435	     62.31196376	      1.08754893	      8.15016793	     -8.59712693	     -7.49999987	     61.40561086	     -8.58682999	      1.18494315	     58.67307061	      1.02403826	     13.73101444	     -7.26793021	     -7.49999987	    -13.99549779	      3.53498461	      3.65743117	     33.50339361	     -2.72920944	     79.37687684	    119.98902308	    106.73647209	     38.56729387	     -5.36993808	     62.71166721	    118.83572446	    107.44774918
      3.18333330	    -20.74047672	     -0.25367662	      0.86305356	      0.51637610	      0.75578561	     -0.03082001	     73.10920369	     -8.47697517	      2.49220032	     73.28493683	      1.27906344	     14.59906096	     -9.85923431	     -7.49999987	     68.31188896	     -8.79238687	      1.87987745	     69.20809450	      1.20790912	     20.71781331	     -6.76237331	     -7.49999987	    -15.97305424	      3.64952728	      3.53487403	     35.90277363	     -2.36164102	     78.43936525	    119.74942807	    107.96861269	     39.83407701	     -5.84119846	     63.03517224	    118.75838339	    108.86194969
      3.20000000	    -21.03542169	     -0.58896126	      0.92271425	      0.50889508	      0.73121701	     -0.02870786	     78.06542887	     -8.13326221	      2.78149560	     81.08504888	      1.41520108	     18.13522788	    -10.37737432	     -7.49999987	     73.96719554	     -9.24041795	      2.75093186	     77.72548637	      1.35656565	     23.97937227	     -7.57014120	     -7.49999987	    -19.44681495	      3.93566927	      3.85360093	     38.92627632	     -2.81615850	     77.41515921	    118.14361395	    107.77667032	     41.87889755	     -5.86441279	     65.18270173	    116.83636501	    108.76038842
